<svg id="SvgjsSvg1001" width="288" height="288" xmlns="http://www.w3.org/2000/svg" version="1.1" xmlns:xlink="http://www.w3.org/1999/xlink" xmlns:svgjs="http://svgjs.com/svgjs"><defs id="SvgjsDefs1002"></defs><g id="SvgjsG1008"><svg xmlns="http://www.w3.org/2000/svg" viewBox="0 0 32.402 32" width="288" height="288"><path d="M6 30a2 2 1080 1 0 4 0 2 2 1080 1 0-4 0zm18 0a2 2 1080 1 0 4 0 2 2 1080 1 0-4 0zM-.058 5a1 1 0 0 0 1 1H3.02l1.242 5.312L6 20c0 .072.034.134.042.204l-1.018 4.58A.997.997 0 0 0 6 26h22.688a1 1 0 0 0 0-2H7.248l.458-2.06c.1.016.19.06.294.06h18.23c1.104 0 1.77-.218 2.302-1.5l3.248-9.964C32.344 8.75 31.106 8 30 8H6c-.156 0-.292.054-.438.088l-.776-3.316A1 1 0 0 0 3.812 4H.942a1 1 0 0 0-1 1zm6.098 5h23.81l-3.192 9.798c-.038.086-.07.148-.094.19-.066.006-.17.012-.334.012H8v-.198l-.038-.194L6.04 10z" fill="#f6a13f" class="color000 svgShape"></path></svg></g></svg>