<svg xmlns="http://www.w3.org/2000/svg" enable-background="new 0 0 512 512" viewBox="0 0 512 512" id="shopping-bag"><path d="M461.167,444.24l-31.97-275.62c-1.56-25.24-19.56-44.79-41.25-44.79h-35.98v-15.79c0-27.13-9.9-52.67-27.87-71.91
		C305.947,16.7,281.767,6,255.997,6c-52.91,0-95.96,45.78-95.96,102.04v15.79h-35.99c-21.68,0-39.68,19.55-41.24,44.79
		l-31.97,275.62C49.107,472.2,68.067,496,92.077,496h327.84C443.937,496,462.897,472.2,461.167,444.24z M180.037,108.04
		c0-45.24,34.07-82.04,75.96-82.04c20.17,0,39.16,8.44,53.48,23.78c14.5,15.52,22.49,36.22,22.49,58.26v15.79h-151.93V108.04z
		 M170.037,192.86c-10.66,0-19.3-8.64-19.3-19.3c0-10.66,8.64-19.3,19.3-19.3c10.66,0,19.3,8.64,19.3,19.3
		C189.338,184.22,180.697,192.86,170.037,192.86z M341.967,192.87c-10.66,0-19.3-8.65-19.3-19.31c0-10.64,8.61-19.27,19.25-19.3h0.1
		c10.64,0.03,19.25,8.66,19.25,19.3C361.267,184.22,352.628,192.87,341.967,192.87z" fill="#f6a13f"></path></svg>